<svg xmlns="http://www.w3.org/2000/svg" width="186" height="80" viewBox="0 0 186 80">
    <g fill="none" fill-rule="evenodd">
        <path fill="#FF7D00" d="M0 80h93V0H0z"/>
        <path fill="#FFF" d="M45.081 27.114c-4.776 0-8.67 3.743-8.961 8.461h-7.107C29.307 26.923 36.387 20 45.081 20c8.697 0 15.775 6.923 16.07 15.575h-7.107c-.29-4.718-4.185-8.46-8.963-8.46zm10.051 21.592A16.123 16.123 0 0 1 61.11 60h-7.141c-.62-4.368-4.357-7.733-8.887-7.733a15.94 15.94 0 0 1-8.987-2.775V60H29V38.113H36.318c.9 4.027 4.478 7.04 8.763 7.04 4.286 0 7.863-3.013 8.765-7.04h7.194c-.524 4.28-2.722 8.027-5.908 10.593z"/>
        <path fill="#C00" d="M93 80h93V0H93z"/>
        <g fill="#FFF">
            <path d="M106.416 24.224c-.5 0-.888.085-1.178.265-.288.167-.501.387-.658.665a2.728 2.728 0 0 0-.29.9c-.043.334-.069.661-.069.97 0 .31.019.601.062.9.044.295.137.56.275.793.143.238.344.425.61.567.261.144.614.209 1.055.209.455 0 .809-.065 1.081-.214a1.63 1.63 0 0 0 .614-.577c.143-.228.239-.51.275-.82a7.462 7.462 0 0 0 0-1.973 2.365 2.365 0 0 0-.262-.866 1.554 1.554 0 0 0-.554-.598c-.243-.145-.563-.221-.96-.221m-3.417 2.8c0-.935.026-1.78.084-2.55.053-.766.181-1.446.39-2.047.209-.587.52-1.09.923-1.502.41-.412.963-.733 1.673-.952.416-.116.859-.221 1.345-.322.479-.1.898-.184 1.253-.262.096-.015.164-.025.202-.012.032.012.062.053.088.137l.123.488c.062.205.007.321-.174.364-.402.085-.76.171-1.066.24-.313.073-.602.143-.883.209a5.526 5.526 0 0 0-1.228.441 2.62 2.62 0 0 0-.79.626c-.203.258-.36.557-.46.916-.102.35-.17.768-.211 1.254 0 0 .022 0 .034.012.258-.324.592-.557.985-.702a3.89 3.89 0 0 1 1.324-.214c.539 0 .988.096 1.352.288.372.182.668.451.89.788.227.316.39.714.482 1.17.094.451.14.94.14 1.45 0 .44-.038.892-.119 1.346a3.08 3.08 0 0 1-.475 1.22c-.234.352-.569.642-.997.878-.433.218-1.01.331-1.72.331-.668 0-1.206-.103-1.614-.31a2.467 2.467 0 0 1-.964-.836 3.014 3.014 0 0 1-.468-1.159 6.775 6.775 0 0 1-.119-1.29M116.009 26.877h-2.328c-.484 0-.87.106-1.153.329-.285.224-.424.643-.424 1.276 0 .45.084.747.26.903.172.155.494.236.957.236.201 0 .416-.025.658-.08a6.094 6.094 0 0 0 1.425-.512c.221-.098.431-.198.605-.308v-1.844zm-.015 2.854c-.387.234-.823.462-1.307.67-.481.207-1.035.31-1.667.31-.773 0-1.322-.182-1.65-.55-.323-.373-.49-.915-.49-1.63 0-.89.227-1.558.683-1.993.448-.44 1.214-.655 2.26-.655h2.186v-.535c0-.584-.129-.988-.402-1.204-.267-.224-.752-.332-1.454-.332-.14 0-.308 0-.497.005a9.75 9.75 0 0 0-.574.032l-.597.051c-.207.01-.392.035-.556.057-.183.03-.287-.022-.317-.145l-.094-.412a.22.22 0 0 1 .019-.195.584.584 0 0 1 .228-.152c.164-.056.355-.098.57-.147.224-.04.456-.076.702-.105.237-.025.478-.037.72-.047.238-.012.449-.015.64-.015.633 0 1.134.062 1.515.204.373.133.663.321.862.57.198.243.323.532.374.883.052.351.086.727.086 1.154v3.48c0 .167.006.287.02.365.017.09.039.158.078.19a.25.25 0 0 0 .17.087c.07.02.171.037.301.052.178.007.266.074.266.196v.4a.27.27 0 0 1-.064.18c-.044.046-.125.083-.249.097a2.95 2.95 0 0 1-.561.052c-.373 0-.646-.066-.821-.203-.178-.14-.298-.373-.344-.715h-.036zM125.374 30.43h-.455c-.257 0-.385-.11-.385-.313v-3.245h-4.025v3.245c0 .204-.11.314-.343.314h-.49c-.236 0-.354-.11-.354-.314V23.07c0-.128.033-.216.09-.26.06-.047.144-.072.264-.072h.49c.114 0 .204.025.26.071.06.045.083.133.083.261v2.763h4.025V23.07c0-.128.038-.216.103-.26a.492.492 0 0 1 .282-.072h.455c.117 0 .202.025.264.071.051.045.084.133.084.261v7.046c0 .204-.122.314-.348.314M128.423 30.21c0 .145-.077.221-.222.221h-.756c-.16 0-.244-.076-.244-.22v-7.236c0-.093.02-.157.058-.186.04-.037.103-.05.186-.05h.756c.089 0 .14.013.178.05.03.029.044.093.044.186v3.05h1.061c.143 0 .282-.011.438-.043a1.277 1.277 0 0 0 .844-.555c.13-.176.237-.403.33-.687l.607-1.747c.033-.106.075-.175.122-.204a.381.381 0 0 1 .215-.05h.583c.145 0 .232.025.256.079.023.054.02.138-.019.253l-.575 1.698c-.146.43-.307.79-.482 1.085-.176.302-.397.489-.675.574.208.076.367.165.499.263.134.091.252.214.351.358.1.132.187.285.255.457.069.172.142.368.212.576l.665 2.018c.03.106.038.191.014.245-.02.057-.103.086-.255.086h-.646a.476.476 0 0 1-.209-.046c-.046-.03-.093-.101-.124-.206l-.6-1.831a2.438 2.438 0 0 0-.338-.685 1.373 1.373 0 0 0-.42-.387c-.15-.095-.31-.141-.475-.168a3.575 3.575 0 0 0-.513-.042h-1.121v3.144zM108.259 40.71c0-.597-.027-1.09-.089-1.445-.05-.364-.143-.644-.264-.842-.12-.2-.272-.337-.451-.402a2.179 2.179 0 0 0-.632-.086c-.193 0-.405.031-.652.086-.25.065-.493.144-.734.24a8.78 8.78 0 0 0-1.216.574v4.548c.443.124.845.213 1.216.27.365.048.717.078 1.053.078.339 0 .624-.055.851-.155a1.15 1.15 0 0 0 .536-.5 2.56 2.56 0 0 0 .293-.932c.062-.389.089-.862.089-1.434m1.252.05c0 .654-.048 1.229-.144 1.737-.093.503-.26.925-.497 1.269-.24.346-.555.599-.95.785-.394.177-.895.257-1.502.257-.296 0-.631-.019-1-.088-.366-.069-.759-.179-1.177-.344l-.02.013v2.771c0 .098-.02.179-.057.22-.036.052-.114.074-.23.074h-.662c-.116 0-.192-.016-.22-.061a.424.424 0 0 1-.052-.233v-9.903c0-.18.091-.272.272-.272h.661c.18 0 .273.093.273.272v.564l.047.03a8.73 8.73 0 0 1 1.118-.619c.243-.1.502-.189.767-.282.269-.069.534-.108.8-.108.493 0 .904.084 1.237.256.333.178.595.43.789.755.195.336.334.746.42 1.24.081.475.127 1.03.127 1.666M116.154 40.818c0-.483-.032-.911-.078-1.269-.056-.366-.158-.664-.31-.895a1.4 1.4 0 0 0-.632-.539c-.275-.12-.627-.178-1.057-.178-.407 0-.74.058-.994.178a1.44 1.44 0 0 0-.61.543c-.145.243-.242.54-.294.9a8.49 8.49 0 0 0-.077 1.26c0 .483.023.908.077 1.264.052.355.15.65.294.896.154.238.354.417.61.542.253.118.587.181.994.181.43 0 .782-.053 1.057-.174a1.38 1.38 0 0 0 .633-.527c.15-.238.253-.541.31-.899.045-.363.077-.787.077-1.283m1.217-.106c0 .467-.026.933-.076 1.424a3.63 3.63 0 0 1-.405 1.325 2.483 2.483 0 0 1-.983.98c-.445.257-1.056.378-1.835.378-.757 0-1.352-.12-1.783-.379a2.463 2.463 0 0 1-.954-.969 3.643 3.643 0 0 1-.386-1.328c-.043-.486-.07-.964-.07-1.43 0-.378.031-.789.096-1.25a3.5 3.5 0 0 1 .418-1.254 2.74 2.74 0 0 1 .957-.982c.423-.257.992-.385 1.722-.385.726 0 1.308.116 1.746.339a2.64 2.64 0 0 1 1.003.886c.231.365.373.78.448 1.244.066.466.102.935.102 1.401M124.334 44.457c-.301.138-.668.226-1.116.283-.449.054-.876.08-1.276.08-.698 0-1.251-.1-1.67-.314a2.305 2.305 0 0 1-.968-.874 3.287 3.287 0 0 1-.44-1.273 11.359 11.359 0 0 1-.105-1.563c0-.506.037-.996.105-1.472.066-.47.217-.891.44-1.262.224-.373.552-.665.967-.886.42-.218.973-.334 1.671-.334.154 0 .341.01.554.02.209.01.425.025.639.056.222.025.43.052.644.11.208.045.4.106.57.177.089.037.135.081.15.145a.558.558 0 0 1 .009.189l-.063.366c-.025.08-.075.135-.148.157a.615.615 0 0 1-.264.012c-.328-.034-.688-.064-1.088-.1a12.057 12.057 0 0 0-1.021-.057c-.362 0-.657.051-.9.15-.24.103-.436.262-.581.485-.14.216-.243.511-.305.877a8.04 8.04 0 0 0-.093 1.35c0 .58.03 1.06.093 1.432.062.382.166.683.316.912.147.228.345.398.587.483.24.095.534.145.883.145.13 0 .287-.01.469-.022.184-.008.376-.022.566-.033.199-.024.4-.036.599-.048.198-.018.378-.035.537-.06a.591.591 0 0 1 .227.018c.058.024.098.084.123.189l.063.336c.033.145-.029.254-.174.326M131.093 44.457c-.299.138-.668.226-1.117.283-.446.054-.877.08-1.276.08-.7 0-1.25-.1-1.67-.314-.414-.21-.743-.498-.967-.874a3.209 3.209 0 0 1-.443-1.273 10.72 10.72 0 0 1 0-3.036 3.25 3.25 0 0 1 .443-1.261c.224-.373.553-.665.967-.886.42-.218.97-.334 1.67-.334.16 0 .346.01.56.02.206.01.419.025.635.056.214.025.43.052.644.11.206.045.4.106.57.177.082.037.134.081.147.145a.336.336 0 0 1 .006.189l-.06.366c-.022.08-.067.135-.15.157a.604.604 0 0 1-.265.012c-.32-.034-.69-.064-1.081-.1a11.982 11.982 0 0 0-1.025-.057c-.355 0-.654.051-.904.15-.24.103-.43.262-.57.485-.144.216-.25.511-.311.877-.061.358-.092.818-.092 1.35 0 .58.03 1.06.092 1.432.061.382.167.683.317.912.147.228.342.398.584.483.249.095.539.145.884.145.128 0 .284-.01.47-.022.185-.008.379-.022.568-.033.195-.024.395-.036.597-.048.201-.018.372-.035.539-.06a.616.616 0 0 1 .231.018c.058.024.094.084.117.189l.06.336c.034.145-.032.254-.17.326M132.266 37.173c0-.13.025-.218.073-.262.046-.045.13-.069.244-.069h.524c.13 0 .217.024.269.069.052.044.082.133.082.262v5.292l1.69-2.276 2.41-3.11a1.43 1.43 0 0 1 .16-.168c.052-.045.134-.069.268-.069h.394c.224 0 .332.103.332.304v7.063c0 .222-.113.327-.35.327h-.469c-.244 0-.37-.105-.37-.327v-5.551l-1.407 1.924-2.818 3.713a.695.695 0 0 1-.176.174.49.49 0 0 1-.27.067h-.269c-.208 0-.317-.105-.317-.327v-7.036zM143.918 36.193c-.454 0-.887-.107-1.302-.34-.419-.229-.752-.602-.992-1.105-.027-.042-.046-.108-.082-.204-.029-.086-.021-.16.036-.206l.331-.258c.053-.046.1-.054.143-.036.04.017.082.041.128.08.154.185.3.347.425.482a2.6 2.6 0 0 0 .397.338c.141.091.282.155.437.194.152.047.322.066.517.066.188 0 .348-.027.486-.073.138-.042.266-.113.391-.204.121-.088.242-.201.366-.336.134-.128.27-.282.435-.466.092-.091.182-.106.272-.045l.328.223c.063.045.075.111.039.206-.039.097-.066.16-.088.207-.242.506-.569.879-.986 1.121a2.527 2.527 0 0 1-1.28.356zm-3.21 1.145c0-.13.021-.22.068-.264.047-.044.13-.068.25-.068h.516c.13 0 .219.024.27.068.052.045.083.133.083.264v5.29l1.689-2.275 2.409-3.11c.055-.065.107-.124.162-.169.052-.044.142-.068.262-.068h.404c.218 0 .333.103.333.305v7.062c0 .222-.122.327-.349.327h-.479c-.239 0-.36-.105-.36-.327v-5.551l-1.412 1.924-2.824 3.713a.604.604 0 0 1-.166.174.513.513 0 0 1-.275.067h-.263c-.218 0-.317-.105-.317-.327v-7.035zM154.163 44.457c-.294.138-.667.226-1.116.283-.449.054-.87.08-1.271.08-.7 0-1.26-.1-1.679-.314a2.267 2.267 0 0 1-.96-.874 3.257 3.257 0 0 1-.446-1.273 11.735 11.735 0 0 1-.103-1.563c0-.506.037-.996.103-1.472.07-.47.217-.891.446-1.262a2.39 2.39 0 0 1 .96-.886c.42-.218.98-.334 1.679-.334.15 0 .341.01.55.02.21.01.424.025.64.056.22.025.43.052.644.11.21.045.395.106.569.177.084.037.136.081.152.145a.37.37 0 0 1 .003.189l-.063.366c-.012.08-.072.135-.149.157a.582.582 0 0 1-.26.012c-.327-.034-.688-.064-1.088-.1a11.984 11.984 0 0 0-1.02-.057c-.359 0-.657.051-.903.15-.242.103-.43.262-.579.485-.138.216-.244.511-.306.877-.06.358-.094.818-.094 1.35 0 .58.034 1.06.094 1.432.062.382.172.683.317.912.15.228.34.398.583.483.242.095.54.145.889.145.128 0 .285-.01.466-.022.186-.008.377-.022.575-.033.198-.024.39-.036.594-.048a8.9 8.9 0 0 0 .536-.06.616.616 0 0 1 .231.018c.057.024.102.084.114.189l.063.336c.037.145-.02.254-.17.326M156.56 44.313c0 .15-.08.223-.23.223h-.75c-.161 0-.238-.073-.238-.223V37.08c0-.097.013-.154.056-.19.032-.033.099-.048.181-.048h.752c.09 0 .15.015.179.047.033.037.05.1.05.191v3.048h1.06c.134 0 .282-.01.43-.039.154-.032.306-.083.447-.167.142-.085.277-.218.41-.39.123-.172.232-.405.33-.694l.601-1.74c.031-.109.073-.172.126-.209a.365.365 0 0 1 .197-.047h.594c.145 0 .233.024.262.084.023.051.016.132-.024.252l-.575 1.691a5.86 5.86 0 0 1-.474 1.093c-.178.289-.405.49-.682.566.204.082.367.172.504.263.13.106.246.216.351.349.094.14.177.301.25.47.067.178.14.364.216.575l.665 2.015c.024.1.033.19.009.243-.018.06-.102.093-.252.093h-.642a.48.48 0 0 1-.209-.05c-.056-.033-.098-.096-.127-.207l-.602-1.832c-.095-.282-.206-.517-.34-.686a1.421 1.421 0 0 0-.423-.386 1.319 1.319 0 0 0-.471-.167 4.036 4.036 0 0 0-.507-.034h-1.125v3.139zM162.659 37.173c0-.13.027-.218.072-.262.05-.045.13-.069.251-.069h.517c.13 0 .218.024.268.069.055.044.08.133.08.262v5.292l1.694-2.276 2.406-3.11a1.17 1.17 0 0 1 .161-.168c.049-.045.142-.069.27-.069h.397c.223 0 .323.103.323.304v7.063c0 .222-.107.327-.34.327h-.477c-.244 0-.362-.105-.362-.327v-5.551l-1.417 1.924-2.814 3.713a.623.623 0 0 1-.173.174.494.494 0 0 1-.27.067h-.263c-.218 0-.323-.105-.323-.327v-7.036zM173.75 36.193a2.63 2.63 0 0 1-1.306-.34c-.42-.229-.752-.602-.987-1.105a.946.946 0 0 1-.081-.204c-.03-.086-.025-.16.026-.206l.335-.258c.054-.046.102-.054.143-.036.04.017.08.041.127.08.154.185.3.347.426.482.123.127.26.25.399.338.135.091.28.155.432.194.156.047.326.066.52.066.182 0 .346-.027.489-.073.134-.042.263-.113.39-.204.111-.088.241-.201.366-.336.129-.128.271-.282.431-.466.088-.091.181-.106.271-.045l.325.223c.066.045.077.111.047.206-.04.097-.069.16-.088.207-.245.506-.572.879-.986 1.121a2.536 2.536 0 0 1-1.279.356zm-3.212 1.145c0-.13.02-.22.068-.264.041-.044.127-.068.244-.068h.526c.127 0 .215.024.266.068.05.045.076.133.076.264v5.29l1.697-2.275 2.408-3.11a1.3 1.3 0 0 1 .156-.169c.055-.044.143-.068.27-.068h.395c.221 0 .334.103.334.305v7.062c0 .222-.113.327-.35.327h-.475c-.242 0-.363-.105-.363-.327v-5.551l-1.405 1.924-2.822 3.713a.556.556 0 0 1-.175.174.497.497 0 0 1-.268.067h-.27c-.208 0-.312-.105-.312-.327v-7.035zM104.292 59.553c0 .145-.071.223-.226.223h-.752c-.163 0-.243-.078-.243-.223v-7.24c0-.089.023-.156.056-.191.035-.026.1-.042.187-.042h.752c.088 0 .145.022.18.042.031.035.046.102.046.196v3.044h1.064c.13 0 .279-.013.435-.03.153-.03.295-.097.44-.172.143-.087.28-.21.403-.389.132-.18.24-.403.333-.688l.599-1.75c.038-.1.08-.176.133-.211a.528.528 0 0 1 .206-.042h.584c.151 0 .235.035.26.077.03.058.019.147-.02.257l-.575 1.698c-.148.427-.305.796-.482 1.085-.177.297-.396.49-.671.577.198.066.365.157.494.26.139.097.254.21.354.353.1.133.184.29.25.462.07.168.142.365.219.577l.664 2.023c.026.1.035.18.01.242-.018.058-.107.085-.248.085h-.654a.365.365 0 0 1-.202-.049c-.056-.036-.095-.1-.13-.21l-.599-1.83a2.4 2.4 0 0 0-.343-.686 1.47 1.47 0 0 0-.416-.39 1.541 1.541 0 0 0-.475-.165 4.356 4.356 0 0 0-.511-.038h-1.122v3.145zM115.236 56.063h-2.332c-.489 0-.866.103-1.156.334-.283.214-.424.642-.424 1.276 0 .44.083.74.262.9.173.16.49.239.955.239.203 0 .425-.032.659-.078a6.6 6.6 0 0 0 .72-.214c.244-.095.477-.187.704-.294.222-.109.428-.216.612-.313v-1.85zm-.017 2.86c-.393.223-.827.453-1.307.658-.48.215-1.039.327-1.671.327-.767 0-1.322-.195-1.648-.561-.325-.368-.492-.913-.492-1.624 0-.896.228-1.56.686-2.006.45-.434 1.204-.65 2.262-.65h2.187v-.538c0-.582-.133-.981-.405-1.205-.27-.216-.757-.33-1.452-.33-.145 0-.31.012-.497.012-.185.004-.376.022-.578.031-.199.016-.4.03-.6.047-.2.019-.385.032-.557.054-.175.032-.285-.012-.315-.145l-.098-.405c-.016-.074-.011-.14.025-.191a.665.665 0 0 1 .23-.162c.158-.05.35-.096.572-.14.223-.037.455-.07.697-.106.242-.02.481-.044.725-.056.23-.008.444-.008.637-.008.63 0 1.135.064 1.512.196.38.145.666.337.86.578.199.235.327.532.381.883.053.349.082.734.082 1.154v3.49c0 .151.007.274.024.363a.385.385 0 0 0 .079.19c.033.046.088.068.166.09.07.01.17.02.293.031.186.012.274.079.274.215v.384a.27.27 0 0 1-.06.185c-.048.048-.13.085-.255.103a3.037 3.037 0 0 1-.554.049c-.378 0-.647-.067-.824-.2-.18-.145-.293-.377-.346-.714h-.033zM124.475 59.776h-.67c-.179 0-.26-.095-.26-.277v-6.341h-3.94v6.341c0 .182-.09.277-.273.277h-.643c-.185 0-.273-.095-.273-.277v-7.15c0-.183.088-.269.273-.269h5.806c.098 0 .165.021.203.051.044.04.072.114.072.239v7.129c0 .182-.098.277-.295.277M126.489 52.414c0-.132.025-.212.073-.263.046-.05.13-.071.248-.071h.52c.128 0 .215.021.272.07.048.052.08.132.08.264v5.287l1.692-2.274 2.404-3.114c.054-.057.111-.11.157-.162.054-.05.146-.071.274-.071h.394c.218 0 .335.1.335.3v7.077c0 .212-.117.32-.349.32h-.472c-.246 0-.369-.108-.369-.32v-5.556l-1.409 1.919-2.82 3.713a.685.685 0 0 1-.174.18.5.5 0 0 1-.27.063h-.265c-.213 0-.321-.107-.321-.319v-7.043zM140.225 53.094c-.043.054-.142.076-.292.076h-2.18v6.287c0 .212-.12.32-.352.32h-.457c-.258 0-.38-.108-.38-.32V53.17h-2.202c-.148 0-.248-.022-.298-.076-.057-.057-.082-.133-.082-.26v-.437c0-.212.119-.317.36-.317h5.612c.137 0 .228.035.27.077a.337.337 0 0 1 .08.24v.436c0 .128-.026.204-.08.261M145.507 56.063h-2.331c-.481 0-.866.103-1.152.334-.285.214-.428.642-.428 1.276 0 .44.09.74.264.9.174.16.494.239.961.239.196 0 .413-.032.652-.078.237-.054.481-.129.719-.214.242-.095.482-.187.705-.294.227-.109.434-.216.61-.313v-1.85zm-.011 2.86a12.36 12.36 0 0 1-1.308.658c-.481.215-1.042.327-1.672.327-.771 0-1.318-.195-1.646-.561-.33-.368-.489-.913-.489-1.624 0-.896.225-1.56.679-2.006.454-.434 1.211-.65 2.262-.65h2.185v-.538c0-.582-.133-.981-.402-1.205-.264-.216-.753-.33-1.445-.33-.15 0-.316.012-.504.012-.181.004-.373.022-.577.031l-.602.047c-.199.019-.384.032-.55.054-.183.032-.287-.012-.317-.145l-.093-.405c-.024-.074-.017-.14.02-.191a.56.56 0 0 1 .224-.162c.165-.05.352-.096.575-.14.219-.037.452-.07.695-.106.241-.02.486-.044.72-.056.241-.008.456-.008.64-.008.634 0 1.134.064 1.52.196.373.145.664.337.858.578.203.235.328.532.378.883.056.349.085.734.085 1.154v3.49c0 .151.01.274.02.363a.538.538 0 0 0 .078.19c.04.046.097.068.16.09.082.01.184.02.313.031.174.012.261.079.261.215v.384c0 .082-.013.137-.062.185-.038.048-.122.085-.251.103a2.986 2.986 0 0 1-.555.049c-.375 0-.648-.067-.828-.2-.172-.145-.293-.377-.344-.714h-.028zM154.624 52.08c.121 0 .212.021.28.07.058.052.092.132.092.265v7.042c0 .212-.11.32-.332.32h-.523c-.225 0-.333-.108-.333-.32V53.17h-2.822l-.332 3.952c-.028.39-.084.749-.139 1.08a2.42 2.42 0 0 1-.343.879c-.164.252-.395.45-.695.6-.298.142-.71.227-1.226.233-.147 0-.244-.016-.293-.055-.033-.036-.056-.1-.056-.197v-.43c0-.085.01-.127.037-.151a.48.48 0 0 1 .17-.067c.26-.051.483-.118.653-.188.17-.091.318-.21.419-.364.112-.16.188-.373.25-.65.054-.27.105-.623.152-1.07l.37-3.88c.037-.307.132-.504.276-.616.143-.114.369-.165.645-.165h3.75z"/>
        </g>
    </g>
</svg>
